<?xml version="1.0" encoding="utf-8"?>
<!-- Generator: Adobe Illustrator 22.1.0, SVG Export Plug-In . SVG Version: 6.00 Build 0)  -->
<svg version="1.1" id="Layer_1" xmlns="http://www.w3.org/2000/svg" xmlns:xlink="http://www.w3.org/1999/xlink" x="0px" y="0px"
	 viewBox="0 0 72 72" style="enable-background:new 0 0 72 72;" xml:space="preserve">
<style type="text/css">
	.st0{fill:#FFCE29;}
	.st1{fill:#FFA500;}
	.st2{opacity:0.15;enable-background:new    ;}
	.st3{opacity:0.3;fill:#FFFFFF;enable-background:new    ;}
	.st4{fill:#FFFFFF;}
	.st5{opacity:0.3;enable-background:new    ;}
</style>
<path class="st0" d="M56.2,39.1c-1.3,3.2,2.8,10.1,0.4,12.4c-2.4,2.4-9.3-1.7-12.4-0.4c-3.1,1.3-5,9.1-8.5,9.1c-1.8,0-3.2-2-4.5-4.2
	c-1.3-2.1-2.5-4.3-4-4.9c-1.5-0.6-3.9,0-6.3,0.5c-2.5,0.6-4.9,1.1-6.2-0.1c-2.4-2.4,1.7-9.3,0.4-12.4c-1.3-3.1-9.1-5-9.1-8.5
	s7.8-5.4,9.1-8.5c1.3-3.2-2.8-10.1-0.4-12.4s9.3,1.7,12.4,0.4c3.1-1.3,5-9.1,8.5-9.1c3.5,0,5.4,7.8,8.5,9.1c1.5,0.6,3.8,0,6.1-0.5
	c2.5-0.6,5-1.2,6.3,0.1s0.7,3.8,0.1,6.3c-0.5,2.3-1.1,4.6-0.5,6.1c1.3,3.1,9.1,5,9.1,8.5C65.2,34.1,57.4,36.1,56.2,39.1z"/>
<path class="st1" d="M49.3,30.6c0,7.6-6.1,13.7-13.7,13.7c-2,0-3.9-0.4-5.6-1.2c-3.1-1.4-5.5-3.8-6.9-6.9c-0.8-1.7-1.2-3.6-1.2-5.6
	C22,23.1,28.1,17,35.6,17c2,0,3.9,0.4,5.6,1.2c3.1,1.4,5.5,3.8,6.9,6.9C48.9,26.7,49.3,28.6,49.3,30.6z"/>
<path class="st2" d="M49.3,30.6c0,7.6-6.1,13.7-13.7,13.7c-2,0-3.9-0.4-5.6-1.2c0.5-2.6,2.8-4.5,5.6-4.5c1.2,0,2.3-0.3,3.4-0.8
	c1.7-0.8,3.1-2.1,3.9-3.8c0.5-1.1,0.8-2.2,0.8-3.4c0-2.7,1.9-5,4.5-5.6C48.9,26.7,49.3,28.6,49.3,30.6z"/>
<path class="st3" d="M41.2,18.1c-0.5,2.6-2.8,4.5-5.6,4.5c-1.2,0-2.3,0.3-3.4,0.8c-1.7,0.8-3.1,2.1-3.9,3.8
	c-0.5,1.1-0.8,2.2-0.8,3.4c0,2.7-1.9,5-4.5,5.6c-0.8-1.7-1.2-3.6-1.2-5.6C22,23.1,28.1,17,35.6,17C37.6,17,39.5,17.4,41.2,18.1z"/>
<path class="st4" d="M30,26.7c-0.4,0-0.9-0.2-1.2-0.5c-0.7-0.7-0.7-1.8,0-2.4c0.8-0.8,1.7-1.4,2.7-1.9c1.3-0.6,2.6-0.9,4.1-0.9
	c0.9,0,1.7,0.8,1.7,1.7s-0.8,1.7-1.7,1.7c-0.9,0-1.8,0.2-2.6,0.6c-0.7,0.3-1.3,0.7-1.8,1.2C30.9,26.5,30.4,26.7,30,26.7z"/>
<ellipse class="st5" cx="35.6" cy="67.1" rx="20.5" ry="3.4"/>
</svg>
